<?xml version="1.0" standalone="no"?>
<!DOCTYPE svg PUBLIC "-//W3C//DTD SVG 20010904//EN"
 "http://www.w3.org/TR/2001/REC-SVG-20010904/DTD/svg10.dtd">
<svg version="1.0" xmlns="http://www.w3.org/2000/svg"
 width="512.000000pt" height="512.000000pt" viewBox="0 0 512.000000 512.000000"
 preserveAspectRatio="xMidYMid meet">

<g transform="translate(0.000000,512.000000) scale(0.100000,-0.100000)"
fill="#000000" stroke="none">
<path d="M2435 5011 c-452 -189 -2227 -956 -2256 -975 -109 -72 -130 -243 -43
-345 50 -58 114 -85 196 -85 l68 1 0 -219 0 -219 25 -24 c29 -30 74 -32 106
-6 24 19 24 21 29 281 l5 262 990 424 c545 233 997 424 1006 424 9 0 40 -11
70 -24 l53 -23 44 70 c32 53 40 72 30 79 -7 4 -54 24 -105 44 l-91 37 -1094
-468 c-601 -257 -1106 -472 -1121 -477 -91 -32 -146 101 -59 142 15 7 533 230
1151 496 l1125 483 156 -64 c86 -36 160 -65 164 -65 5 0 25 15 45 33 20 17 49
41 65 53 l29 21 -194 83 c-236 102 -280 109 -394 61z"/>
<path d="M3425 4999 c-38 -11 -85 -24 -103 -28 -69 -19 -242 -114 -321 -177
-192 -154 -315 -354 -376 -612 -10 -42 -15 -114 -15 -210 1 -144 4 -168 49
-337 13 -51 82 -186 133 -262 142 -212 401 -384 655 -436 75 -15 351 -15 426
0 305 62 586 281 729 568 82 163 102 257 103 465 0 248 -24 310 -122 310 -38
0 -50 -5 -75 -32 -27 -29 -29 -36 -23 -77 3 -26 8 -105 11 -176 5 -111 2 -142
-15 -205 -34 -127 -41 -149 -51 -155 -6 -4 -10 -13 -10 -22 0 -28 -106 -177
-171 -240 -107 -104 -223 -173 -360 -214 -110 -32 -311 -38 -418 -11 -281 72
-507 269 -601 527 -39 104 -50 172 -50 295 0 280 118 517 340 679 155 114 303
161 501 161 117 0 161 -7 286 -45 33 -10 66 1 96 31 22 21 27 36 27 74 0 73
-35 96 -203 134 -101 24 -349 20 -442 -5z"/>
<path d="M4010 4365 c-245 -245 -450 -445 -455 -445 -5 0 -67 57 -138 128
l-127 127 -49 0 c-71 0 -101 -30 -101 -100 l0 -51 183 -182 183 -182 49 0 49
0 488 487 c268 268 495 503 504 521 19 41 12 77 -24 115 -21 22 -35 27 -71 27
l-45 0 -446 -445z"/>
<path d="M2360 4329 c-96 -44 -182 -86 -189 -94 -8 -8 -15 -31 -15 -51 0 -44
40 -84 82 -84 15 0 92 29 172 65 80 36 152 64 161 62 12 -3 22 15 42 75 l25
78 -35 15 c-20 8 -43 15 -52 15 -9 -1 -95 -37 -191 -81z"/>
<path d="M4754 4083 c3 -21 6 -61 6 -89 l0 -50 49 -23 c59 -26 80 -64 61 -110
-15 -38 -59 -57 -98 -43 -30 10 -30 10 -40 -41 -17 -86 -70 -219 -123 -311
l-49 -86 0 -633 c0 -721 -5 -677 80 -677 86 0 80 -61 80 817 l0 773 74 0 c61
0 83 5 127 28 119 62 156 217 79 333 -33 50 -54 65 -170 114 l-83 35 7 -37z"/>
<path d="M745 3575 l-25 -24 0 -1314 c0 -1275 1 -1315 19 -1338 27 -33 95 -33
122 0 18 22 19 53 19 802 l0 779 1680 0 1680 0 0 -170 c0 -168 0 -171 25 -195
15 -16 36 -25 55 -25 19 0 40 9 55 25 l25 24 0 505 0 506 -79 -58 -80 -57 0
-197 -1 -198 -1680 0 -1680 0 0 400 0 400 906 0 c498 0 904 3 902 8 -1 4 -16
40 -33 79 l-30 73 -928 0 -928 0 -24 -25z"/>
<path d="M1065 3255 c-16 -15 -25 -36 -25 -55 0 -19 9 -40 25 -55 l24 -25 932
0 932 0 -74 79 -74 79 -858 1 -858 1 -24 -25z"/>
<path d="M444 2966 c-17 -8 -34 -21 -38 -31 -10 -26 -7 -254 4 -275 5 -10 23
-23 40 -28 36 -13 86 1 100 28 6 10 10 73 10 139 0 110 -2 122 -22 145 -30 32
-56 38 -94 22z"/>
<path d="M1065 2935 c-16 -15 -25 -36 -25 -55 0 -19 9 -40 25 -55 l24 -25
1471 0 1471 0 24 25 c28 27 33 71 12 99 -13 17 -16 17 -82 -3 -225 -70 -451
-67 -678 9 l-88 30 -1065 0 -1065 0 -24 -25z"/>
<path d="M444 2446 c-17 -8 -34 -21 -38 -31 -3 -9 -6 -502 -6 -1096 l0 -1079
-135 0 c-131 0 -137 -1 -160 -25 -33 -32 -33 -78 0 -110 l24 -25 1711 0 1711
0 24 25 c33 32 33 78 0 110 l-24 25 -494 0 -494 0 34 66 c18 37 33 73 33 80 0
12 104 14 649 14 l649 0 12 -37 c7 -21 23 -57 35 -81 l24 -42 -95 0 c-87 0
-97 -2 -119 -25 -33 -32 -33 -78 0 -110 l24 -25 591 0 591 0 24 25 c16 15 25
36 25 55 0 19 -9 40 -25 55 -24 25 -27 25 -198 25 l-174 0 34 66 c18 37 33 73
33 80 0 11 18 14 73 14 120 0 199 50 242 153 35 84 5 157 -65 157 -44 0 -80
-35 -80 -77 0 -13 -11 -35 -25 -48 -20 -21 -34 -25 -85 -25 -41 0 -60 4 -60
13 0 6 -13 39 -29 72 -43 90 -100 148 -189 192 -72 36 -81 38 -171 38 -87 0
-102 -3 -163 -32 -86 -40 -160 -113 -198 -195 -17 -35 -30 -69 -30 -75 0 -10
-24 -13 -85 -13 l-85 0 0 640 0 640 80 0 80 0 0 -295 0 -296 25 -24 24 -25
456 0 455 0 0 -170 c0 -168 0 -171 25 -195 32 -33 78 -33 110 0 l25 24 0 229
0 230 -143 188 c-322 425 -345 451 -424 480 -29 10 -120 13 -375 14 l-338 0 0
58 c-2 140 -92 245 -222 259 -72 7 -103 -16 -103 -77 0 -50 29 -80 77 -80 19
0 40 -10 59 -29 l29 -29 0 -451 0 -451 -695 0 -696 0 -24 -25 c-33 -32 -33
-78 0 -110 l24 -25 696 0 695 0 0 -240 0 -240 -485 0 c-381 0 -485 3 -485 13
0 6 -13 39 -29 72 -43 90 -100 148 -189 192 -72 36 -81 38 -171 38 -87 0 -102
-3 -163 -32 -86 -40 -160 -113 -198 -195 -17 -35 -30 -69 -30 -75 0 -9 -18
-13 -56 -13 -48 0 -59 4 -85 29 l-29 29 0 211 0 211 135 0 c131 0 137 1 160
25 33 32 33 78 0 110 -23 24 -29 25 -160 25 l-135 0 0 451 0 451 29 29 29 29
732 0 c458 0 738 4 750 10 43 23 43 117 0 140 -12 6 -294 10 -757 10 -590 -1
-746 -4 -776 -14 -55 -20 -103 -61 -134 -114 l-28 -47 0 -780 0 -780 22 -40
c47 -88 128 -134 235 -135 l66 0 12 -37 c7 -21 23 -57 35 -80 l24 -43 -520 0
-519 0 0 214 c0 195 -2 216 -19 237 -27 33 -95 33 -122 0 -17 -21 -19 -42 -19
-237 l0 -214 -80 0 -80 0 0 1080 c0 1067 0 1080 -20 1100 -11 11 -24 20 -29
20 -5 0 -15 2 -23 5 -7 2 -27 -2 -44 -9z m3993 -619 c12 -7 99 -114 192 -239
l171 -228 -360 0 -360 0 0 240 0 240 168 0 c112 -1 174 -5 189 -13z m-2069
-1144 c28 -17 58 -48 77 -77 27 -44 30 -58 30 -126 0 -68 -3 -82 -30 -126 -19
-30 -49 -60 -79 -79 -72 -44 -180 -44 -252 0 -30 19 -60 49 -79 79 -26 44 -30
58 -30 125 0 65 4 83 28 123 48 83 124 121 225 114 47 -3 75 -11 110 -33z
m2080 0 c28 -17 58 -48 77 -77 27 -44 30 -58 30 -126 0 -68 -3 -82 -30 -126
-19 -30 -49 -60 -79 -79 -72 -44 -180 -44 -252 0 -30 19 -60 49 -79 79 -26 44
-30 58 -30 125 0 65 4 83 28 123 48 83 124 121 225 114 47 -3 75 -11 110 -33z"/>
<path d="M2185 535 c-50 -49 -15 -135 55 -135 41 0 80 39 80 80 0 41 -39 80
-80 80 -19 0 -40 -9 -55 -25z"/>
<path d="M4265 535 c-50 -49 -15 -135 55 -135 41 0 80 39 80 80 0 41 -39 80
-80 80 -19 0 -40 -9 -55 -25z"/>
<path d="M1865 1975 c-24 -23 -25 -31 -25 -135 0 -104 1 -112 25 -135 15 -16
36 -25 55 -25 51 0 80 38 80 105 l0 55 55 0 c67 0 105 29 105 80 0 19 -9 40
-25 55 -23 24 -31 25 -135 25 -104 0 -112 -1 -135 -25z"/>
<path d="M2825 855 c-16 -15 -25 -36 -25 -55 0 -19 9 -40 25 -55 l24 -25 271
0 271 0 24 25 c16 15 25 36 25 55 0 19 -9 40 -25 55 l-24 25 -271 0 -271 0
-24 -25z"/>
</g>
</svg>
