<?xml version="1.0" standalone="no"?>
<!DOCTYPE svg PUBLIC "-//W3C//DTD SVG 20010904//EN"
 "http://www.w3.org/TR/2001/REC-SVG-20010904/DTD/svg10.dtd">
<svg version="1.0" xmlns="http://www.w3.org/2000/svg"
 width="512.000000pt" height="512.000000pt" viewBox="0 0 512.000000 512.000000"
 preserveAspectRatio="xMidYMid meet">

<g transform="translate(0.000000,512.000000) scale(0.100000,-0.100000)"
fill="#000000" stroke="none">
<path d="M2435 5011 c-452 -189 -2227 -956 -2256 -975 -109 -72 -130 -243 -43
-345 50 -58 114 -85 196 -85 l68 1 0 -219 0 -219 25 -24 c29 -30 74 -32 106
-6 24 19 24 21 29 281 l5 262 990 424 c545 233 997 424 1005 424 8 0 460 -191
1005 -424 l990 -424 5 -645 c4 -525 8 -647 19 -660 9 -12 29 -17 62 -17 84 0
79 -40 79 647 l0 603 74 0 c61 0 83 5 127 28 132 69 160 255 55 364 -24 25
-91 59 -254 131 -123 53 -233 97 -246 97 -33 0 -65 -29 -72 -66 -10 -51 23
-75 216 -159 241 -105 237 -103 250 -136 26 -61 -34 -124 -97 -101 -15 5 -332
141 -703 302 -718 311 -1384 595 -1462 625 l-47 17 -1093 -467 c-601 -257
-1106 -472 -1121 -477 -91 -32 -146 101 -59 142 15 7 533 230 1151 496 l1124
483 74 -30 c89 -35 729 -311 1181 -508 178 -77 334 -141 347 -141 58 0 93 75
56 121 -15 19 -217 111 -803 364 -725 314 -788 339 -848 342 -54 3 -77 -1
-135 -26z"/>
<path d="M2360 4329 c-96 -44 -182 -86 -189 -94 -8 -8 -15 -31 -15 -51 0 -44
40 -84 82 -84 15 0 92 30 172 66 l145 66 80 -28 c95 -32 127 -28 150 17 17 32
13 80 -8 97 -19 16 -208 92 -226 92 -9 -1 -95 -37 -191 -81z"/>
<path d="M745 3575 l-25 -24 0 -1314 c0 -1275 1 -1315 19 -1338 27 -33 95 -33
122 0 18 22 19 53 19 802 l0 779 1676 0 1676 0 28 -30 c36 -38 81 -40 115 -5
l25 24 0 541 0 541 -25 24 -24 25 -1791 0 -1791 0 -24 -25z m3495 -535 l0
-400 -1680 0 -1680 0 0 400 0 400 1680 0 1680 0 0 -400z"/>
<path d="M1065 3255 c-16 -15 -25 -36 -25 -55 0 -19 9 -40 25 -55 l24 -25
1471 0 1471 0 24 25 c16 15 25 36 25 55 0 19 -9 40 -25 55 l-24 25 -1471 0
-1471 0 -24 -25z"/>
<path d="M1065 2935 c-16 -15 -25 -36 -25 -55 0 -19 9 -40 25 -55 l24 -25
1471 0 1471 0 24 25 c16 15 25 36 25 55 0 19 -9 40 -25 55 l-24 25 -1471 0
-1471 0 -24 -25z"/>
<path d="M444 2966 c-17 -8 -34 -21 -38 -31 -10 -26 -7 -254 4 -275 5 -10 23
-23 40 -28 36 -13 86 1 100 28 6 10 10 73 10 139 0 110 -2 122 -22 145 -30 32
-56 38 -94 22z"/>
<path d="M444 2446 c-17 -8 -34 -21 -38 -31 -3 -9 -6 -502 -6 -1096 l0 -1079
-135 0 c-131 0 -137 -1 -160 -25 -33 -32 -33 -78 0 -110 l24 -25 1711 0 1711
0 24 25 c33 32 33 78 0 110 l-24 25 -494 0 -494 0 34 66 c18 37 33 73 33 80 0
12 104 14 649 14 l649 0 12 -37 c7 -21 23 -57 35 -81 l24 -42 -95 0 c-87 0
-97 -2 -119 -25 -33 -32 -33 -78 0 -110 l24 -25 591 0 591 0 24 25 c16 15 25
36 25 55 0 19 -9 40 -25 55 -24 25 -27 25 -198 25 l-174 0 34 66 c18 37 33 73
33 80 0 11 18 14 73 14 120 0 199 50 242 153 35 84 5 157 -65 157 -44 0 -80
-35 -80 -77 0 -13 -11 -35 -25 -48 -20 -21 -34 -25 -85 -25 -41 0 -60 4 -60
13 0 6 -13 39 -29 72 -43 90 -100 148 -189 192 -72 36 -81 38 -171 38 -87 0
-102 -3 -163 -32 -86 -40 -160 -113 -198 -195 -17 -35 -30 -69 -30 -75 0 -10
-24 -13 -85 -13 l-85 0 0 640 0 640 80 0 80 0 0 -295 0 -296 25 -24 24 -25
456 0 455 0 0 -170 c0 -168 0 -171 25 -195 32 -33 78 -33 110 0 l25 24 0 229
0 230 -143 188 c-322 425 -345 451 -424 480 -29 10 -120 13 -375 14 l-338 0 0
58 c-2 140 -92 245 -222 259 -72 7 -103 -16 -103 -77 0 -50 29 -80 77 -80 19
0 40 -10 59 -29 l29 -29 0 -451 0 -451 -695 0 -696 0 -24 -25 c-33 -32 -33
-78 0 -110 l24 -25 696 0 695 0 0 -240 0 -240 -485 0 c-381 0 -485 3 -485 13
0 6 -13 39 -29 72 -43 90 -100 148 -189 192 -72 36 -81 38 -171 38 -87 0 -102
-3 -163 -32 -86 -40 -160 -113 -198 -195 -17 -35 -30 -69 -30 -75 0 -9 -18
-13 -56 -13 -48 0 -59 4 -85 29 l-29 29 0 211 0 211 135 0 c131 0 137 1 160
25 33 32 33 78 0 110 -23 24 -29 25 -160 25 l-135 0 0 451 0 451 29 29 29 29
732 0 c458 0 738 4 750 10 43 23 43 117 0 140 -12 6 -294 10 -757 10 -590 -1
-746 -4 -776 -14 -55 -20 -103 -61 -134 -114 l-28 -47 0 -780 0 -780 22 -40
c47 -88 128 -134 235 -135 l66 0 12 -37 c7 -21 23 -57 35 -80 l24 -43 -520 0
-519 0 0 214 c0 195 -2 216 -19 237 -27 33 -95 33 -122 0 -17 -21 -19 -42 -19
-237 l0 -214 -80 0 -80 0 0 1080 c0 1067 0 1080 -20 1100 -11 11 -24 20 -29
20 -5 0 -15 2 -23 5 -7 2 -27 -2 -44 -9z m3993 -619 c12 -7 99 -114 192 -239
l171 -228 -360 0 -360 0 0 240 0 240 168 0 c112 -1 174 -5 189 -13z m-2069
-1144 c28 -17 58 -48 77 -77 27 -44 30 -58 30 -126 0 -68 -3 -82 -30 -126 -19
-30 -49 -60 -79 -79 -72 -44 -180 -44 -252 0 -30 19 -60 49 -79 79 -26 44 -30
58 -30 125 0 65 4 83 28 123 48 83 124 121 225 114 47 -3 75 -11 110 -33z
m2080 0 c28 -17 58 -48 77 -77 27 -44 30 -58 30 -126 0 -68 -3 -82 -30 -126
-19 -30 -49 -60 -79 -79 -72 -44 -180 -44 -252 0 -30 19 -60 49 -79 79 -26 44
-30 58 -30 125 0 65 4 83 28 123 48 83 124 121 225 114 47 -3 75 -11 110 -33z"/>
<path d="M2185 535 c-50 -49 -15 -135 55 -135 41 0 80 39 80 80 0 41 -39 80
-80 80 -19 0 -40 -9 -55 -25z"/>
<path d="M4265 535 c-50 -49 -15 -135 55 -135 41 0 80 39 80 80 0 41 -39 80
-80 80 -19 0 -40 -9 -55 -25z"/>
<path d="M2558 2066 c-178 -51 -298 -220 -285 -401 7 -109 39 -179 116 -256
88 -88 150 -113 276 -113 126 0 188 25 276 113 76 76 108 146 116 251 7 85 -6
134 -36 138 -40 6 -48 -12 -44 -90 7 -100 -21 -173 -91 -244 -126 -125 -314
-125 -441 0 -155 151 -114 404 80 503 59 31 154 41 220 24 36 -9 50 -9 61 0
23 19 12 52 -21 68 -41 20 -169 24 -227 7z"/>
<path d="M1865 1975 c-24 -23 -25 -31 -25 -135 0 -104 1 -112 25 -135 15 -16
36 -25 55 -25 51 0 80 38 80 105 l0 55 55 0 c67 0 105 29 105 80 0 19 -9 40
-25 55 -23 24 -31 25 -135 25 -104 0 -112 -1 -135 -25z"/>
<path d="M2800 1835 c-91 -91 -170 -165 -175 -165 -6 0 -31 20 -55 45 -51 52
-92 59 -98 16 -3 -18 12 -40 64 -92 40 -40 77 -69 89 -69 24 0 395 367 395
391 0 19 -20 39 -40 39 -8 0 -89 -74 -180 -165z"/>
<path d="M2825 855 c-16 -15 -25 -36 -25 -55 0 -19 9 -40 25 -55 l24 -25 271
0 271 0 24 25 c16 15 25 36 25 55 0 19 -9 40 -25 55 l-24 25 -271 0 -271 0
-24 -25z"/>
</g>
</svg>
