<?xml version="1.0" standalone="no"?>
<!DOCTYPE svg PUBLIC "-//W3C//DTD SVG 20010904//EN"
 "http://www.w3.org/TR/2001/REC-SVG-20010904/DTD/svg10.dtd">
<svg version="1.0" xmlns="http://www.w3.org/2000/svg"
 width="512.000000pt" height="512.000000pt" viewBox="0 0 512.000000 512.000000"
 preserveAspectRatio="xMidYMid meet">

<g transform="translate(0.000000,512.000000) scale(0.100000,-0.100000)"
fill="#000000" stroke="none">
<path d="M612 4223 c-12 -10 -145 -178 -296 -373 l-276 -354 0 -1284 0 -1283
25 -24 24 -25 1709 0 1709 0 21 23 c21 22 22 33 22 189 l0 165 77 7 c155 14
285 51 415 118 76 39 78 40 101 21 12 -10 134 -117 270 -238 136 -121 271
-232 298 -248 63 -34 160 -37 224 -8 47 21 98 69 122 115 25 45 24 159 -1 210
-13 26 -105 114 -290 279 -149 132 -277 245 -284 252 -10 9 -3 29 32 101 25
49 58 130 73 179 25 84 27 103 27 270 0 156 -3 191 -22 263 -98 360 -350 642
-679 762 -90 32 -236 60 -317 60 l-48 0 6 45 c5 27 3 53 -4 66 -17 30 -540
702 -559 716 -12 10 -282 12 -1187 13 -1102 0 -1173 -1 -1192 -17z m928 -140
c-1 -11 -178 -524 -183 -529 -2 -2 -245 -3 -540 -2 l-537 3 208 267 207 268
423 0 c232 0 422 -3 422 -7z m445 -256 c47 -145 85 -266 85 -270 0 -4 -121 -7
-270 -7 -209 0 -270 3 -270 13 0 6 39 128 87 269 l88 258 97 0 97 0 86 -263z
m1127 3 c112 -143 205 -265 206 -270 3 -7 -179 -9 -540 -8 l-543 3 -73 220
c-39 121 -79 241 -86 268 l-15 47 424 0 424 0 203 -260z m-1772 -787 c0 -352
0 -357 22 -380 12 -13 33 -23 49 -23 16 0 109 32 208 71 l179 72 179 -72 c98
-39 190 -71 206 -71 15 0 36 9 47 20 19 19 20 33 20 380 l0 360 578 0 c376 0
572 -4 562 -10 -8 -5 -22 -10 -31 -10 -9 0 -56 -12 -105 -26 -418 -121 -721
-488 -763 -924 -5 -52 -6 -130 -2 -172 l7 -78 -1048 0 -1047 0 -28 -24 -28
-24 0 -451 0 -450 23 -23 23 -23 1405 0 1406 0 24 28 c14 16 24 41 24 58 0 33
1 33 85 16 l60 -13 3 -122 3 -122 -1606 0 -1605 0 0 1185 0 1185 575 0 575 0
0 -357z m760 72 c0 -157 -2 -285 -5 -285 -3 0 -67 25 -142 55 -76 30 -147 55
-158 55 -12 0 -81 -25 -155 -55 -74 -30 -138 -55 -142 -55 -5 0 -8 128 -8 285
l0 285 305 0 305 0 0 -285z m1565 125 c154 -22 288 -74 412 -158 122 -83 251
-237 308 -367 126 -285 109 -590 -49 -860 -61 -104 -218 -258 -326 -318 -252
-141 -541 -157 -817 -47 -260 104 -455 333 -525 616 -31 125 -31 323 0 446 45
182 126 322 256 445 120 113 237 176 399 217 133 34 234 41 342 26z m-1120
-1262 c45 -138 161 -316 277 -424 60 -56 171 -135 247 -176 17 -9 31 -22 31
-28 0 -7 -401 -10 -1300 -10 l-1300 0 0 345 0 345 1014 0 1014 0 17 -52z
m2098 -558 c140 -124 263 -239 273 -256 15 -28 16 -36 4 -63 -24 -60 -104 -79
-156 -39 -25 20 -449 393 -497 437 -16 16 -14 20 45 83 35 36 66 65 70 64 3 0
121 -102 261 -226z"/>
<path d="M3378 3075 c-401 -101 -654 -496 -572 -893 61 -297 274 -517 574
-593 69 -18 103 -20 194 -16 135 6 213 26 331 82 250 120 405 378 405 675 0
226 -77 408 -235 559 -80 76 -209 147 -320 177 -83 23 -302 28 -377 9z m317
-150 c215 -55 395 -232 449 -441 20 -78 21 -231 1 -304 -70 -263 -318 -459
-583 -460 -135 0 -316 65 -413 149 -64 56 -134 162 -166 251 -38 109 -44 265
-14 375 12 44 36 106 54 140 44 82 155 192 237 233 134 67 307 89 435 57z"/>
<path d="M3445 2629 c-27 -13 -195 -269 -195 -296 0 -35 11 -53 40 -68 54 -28
79 -8 174 137 56 85 86 140 86 158 0 53 -59 92 -105 69z"/>
<path d="M3753 2630 c-28 -11 -353 -496 -353 -526 0 -37 37 -74 74 -74 18 0
39 6 48 13 23 18 338 495 338 512 0 27 -22 63 -47 74 -28 13 -30 13 -60 1z"/>
<path d="M671 1844 c-28 -35 -26 -69 4 -99 l24 -25 221 0 c207 0 221 1 240 20
27 27 27 83 0 110 -19 19 -33 20 -244 20 l-225 0 -20 -26z"/>
<path d="M750 1620 c-30 -30 -27 -83 6 -109 24 -19 40 -21 164 -21 117 0 141
3 159 18 32 26 37 72 11 105 l-21 27 -150 0 c-136 0 -151 -2 -169 -20z"/>
</g>
</svg>
