<?xml version="1.0" standalone="no"?>
<!DOCTYPE svg PUBLIC "-//W3C//DTD SVG 20010904//EN"
 "http://www.w3.org/TR/2001/REC-SVG-20010904/DTD/svg10.dtd">
<svg version="1.0" xmlns="http://www.w3.org/2000/svg"
 width="512.000000pt" height="512.000000pt" viewBox="0 0 512.000000 512.000000"
 preserveAspectRatio="xMidYMid meet">

<g transform="translate(0.000000,512.000000) scale(0.100000,-0.100000)"
fill="#000000" stroke="none">
<path d="M3502 4217 l-22 -23 -2 -1160 -3 -1159 -75 0 -75 0 -5 225 c-5 224
-5 225 -33 273 -19 33 -44 56 -80 77 l-52 30 -227 0 c-207 0 -227 2 -232 18
-3 9 -62 287 -131 617 -70 330 -135 619 -145 641 -40 93 -127 156 -237 174
-77 13 -889 12 -976 0 -38 -6 -93 -22 -124 -37 -71 -35 -155 -125 -181 -195
-10 -29 -102 -315 -203 -636 l-183 -582 -41 -11 c-108 -29 -195 -105 -248
-217 l-32 -67 -3 -436 c-3 -420 -2 -436 17 -460 18 -23 26 -24 156 -29 l136
-5 21 -60 c11 -33 35 -82 53 -110 l34 -50 -264 -3 -264 -2 -20 -27 c-28 -34
-26 -68 4 -98 l24 -25 2471 0 2471 0 24 25 c30 30 32 64 4 99 l-20 26 -1069 0
-1069 0 34 50 c30 45 75 146 75 170 0 6 53 10 129 10 115 0 131 2 155 21 22
18 26 28 26 75 l0 54 80 0 80 0 0 -54 c0 -47 4 -57 26 -75 26 -21 33 -21 776
-21 l749 0 24 25 c25 24 25 26 25 205 0 179 0 181 -25 205 -19 20 -34 25 -75
25 l-50 0 0 429 0 430 -24 28 -24 28 -451 3 -451 3 -1 47 c0 26 -10 374 -23
774 l-22 728 -24 25 c-23 25 -24 25 -205 25 -177 0 -182 -1 -203 -23z m282
-159 c3 -18 19 -528 35 -1133 17 -605 33 -1124 35 -1152 l5 -53 -115 0 -114 0
0 1185 0 1185 75 0 74 0 5 -32z m-1564 -300 c18 -13 41 -34 51 -48 12 -16 47
-159 99 -410 45 -212 83 -395 87 -407 5 -22 2 -23 -53 -24 -33 0 -80 -4 -106
-8 l-47 -8 -60 90 -60 91 52 38 c60 45 67 54 67 91 0 34 -40 77 -73 77 -14 0
-86 -45 -178 -111 -193 -140 -199 -145 -199 -184 0 -81 68 -100 151 -40 27 19
51 35 54 35 2 0 32 -41 65 -91 l61 -90 -15 -46 c-13 -38 -16 -99 -16 -330 l0
-283 -115 0 -115 0 0 99 c0 55 -5 112 -11 128 -36 96 -119 153 -225 153 l-62
0 -4 223 c-3 204 -5 225 -25 262 -50 94 -111 125 -248 125 -112 0 -153 -16
-207 -80 -52 -60 -58 -93 -58 -324 l0 -206 -175 0 c-96 0 -175 3 -175 6 0 3
81 263 180 577 110 347 191 590 208 617 19 31 43 52 81 72 l53 28 493 0 492 0
33 -22z m-833 -840 c23 -21 23 -25 23 -230 l0 -209 -112 3 -113 3 -3 175 c-4
265 2 280 115 280 55 0 71 -4 90 -22z m1093 -337 l0 -129 -43 -25 c-77 -45
-140 -129 -172 -231 -12 -36 -13 -8 -12 217 l2 259 24 19 c19 15 40 19 112 19
l89 0 0 -129z m1680 -262 l0 -161 29 -29 c16 -16 38 -29 48 -29 10 0 50 15 89
34 l70 33 65 -33 c77 -40 102 -42 134 -9 25 24 25 27 25 190 l0 165 75 0 75 0
0 -380 0 -380 -379 0 -378 0 -6 103 c-4 56 -10 227 -13 380 l-7 277 87 0 86 0
0 -161z m310 71 l0 -91 -31 17 c-30 15 -60 15 -101 -1 -16 -6 -18 1 -18 79 l0
86 75 0 75 0 0 -90z m-2775 -85 c23 -22 25 -32 25 -115 l0 -90 -535 0 -535 0
0 115 0 115 510 0 511 0 24 -25z m1450 0 l25 -24 0 -436 0 -435 -79 0 -79 0
-11 46 c-27 106 -98 204 -192 265 -140 90 -344 92 -491 6 -90 -52 -186 -186
-204 -285 l-6 -32 -350 2 -349 3 -23 67 c-61 183 -206 295 -395 306 -232 13
-404 -103 -472 -318 l-17 -55 -78 0 -79 0 -3 268 -2 267 975 0 c1069 0 1005
-4 1058 60 16 19 28 48 32 78 11 86 26 124 68 169 65 68 84 72 385 73 l263 0
24 -25z m-2645 -100 l0 -105 -80 0 -80 0 6 28 c13 58 17 68 41 104 25 38 77
78 101 78 9 0 12 -28 12 -105z m2980 -560 l0 -75 -80 0 -80 0 0 75 0 75 80 0
80 0 0 -75z m-2395 -34 c112 -49 170 -144 169 -276 0 -93 -25 -155 -82 -213
-115 -114 -321 -112 -437 3 -58 59 -80 115 -80 210 0 149 69 245 210 292 56
18 159 11 220 -16z m1610 -1 c57 -28 107 -76 137 -133 19 -35 23 -58 23 -137
0 -82 -3 -102 -25 -144 -90 -177 -343 -214 -486 -72 -156 156 -96 425 110 498
69 25 176 20 241 -12z m2233 -117 l-3 -78 -647 -3 -648 -2 0 80 0 80 650 0
651 0 -3 -77z m-2804 -292 c10 -32 33 -82 52 -111 19 -29 33 -54 31 -56 -2 -3
-207 -3 -455 -2 l-451 3 33 50 c28 42 55 103 72 163 3 9 82 12 352 12 l348 0
18 -59z"/>
<path d="M905 1561 c-143 -37 -215 -186 -154 -321 27 -60 45 -79 104 -106 66
-31 134 -31 200 0 59 27 77 46 104 106 51 111 6 246 -98 300 -44 22 -115 32
-156 21z m105 -173 c11 -12 20 -35 20 -50 0 -36 -40 -78 -75 -78 -14 0 -37 11
-50 25 -49 48 -19 125 50 125 22 0 41 -8 55 -22z"/>
<path d="M2487 1554 c-130 -41 -191 -198 -127 -323 64 -127 240 -162 346 -69
89 79 105 219 34 316 -51 71 -162 105 -253 76z m127 -163 c26 -29 18 -89 -15
-114 -33 -24 -84 -16 -101 16 -16 30 -12 76 8 98 23 26 85 26 108 0z"/>
</g>
</svg>
