<?xml version="1.0" standalone="no"?>
<!DOCTYPE svg PUBLIC "-//W3C//DTD SVG 20010904//EN"
 "http://www.w3.org/TR/2001/REC-SVG-20010904/DTD/svg10.dtd">
<svg version="1.0" xmlns="http://www.w3.org/2000/svg"
 width="512.000000pt" height="512.000000pt" viewBox="0 0 512.000000 512.000000"
 preserveAspectRatio="xMidYMid meet">

<g transform="translate(0.000000,512.000000) scale(0.100000,-0.100000)"
fill="#000000" stroke="none">
<path d="M1175 4489 c-342 -49 -604 -293 -685 -636 l-12 -53 -76 0 c-93 0
-142 -20 -194 -77 -25 -29 -40 -57 -48 -94 -8 -40 -10 -375 -8 -1259 l3 -1205
28 -48 c15 -26 47 -60 69 -75 41 -27 44 -27 229 -30 l188 -3 40 -54 c111 -147
289 -221 474 -195 132 19 275 107 337 209 l25 40 960 0 960 0 37 -53 c21 -30
64 -74 98 -99 219 -165 536 -120 700 97 l42 56 232 0 232 0 54 33 c41 24 60
44 80 82 l25 49 0 491 0 490 -28 57 c-48 98 -126 149 -252 167 -56 8 -74 16
-99 41 l-31 30 -6 148 c-5 114 -11 161 -28 212 -65 191 -219 348 -404 416
-104 37 -196 44 -598 44 l-379 0 0 171 c0 107 -5 187 -12 213 -16 53 -81 118
-134 134 -30 9 -155 12 -446 12 l-404 0 -17 73 c-40 163 -156 341 -289 441
-130 96 -252 148 -408 171 -104 16 -164 17 -255 4z m225 -153 c398 -72 646
-407 576 -777 -48 -257 -210 -455 -438 -537 -96 -34 -278 -43 -378 -17 -88 22
-234 94 -297 147 -105 88 -183 211 -214 338 -19 77 -16 250 5 330 61 228 223
417 421 489 112 41 205 48 325 27z m-936 -728 c3 -18 8 -58 11 -88 33 -299
301 -581 639 -673 106 -28 308 -31 405 -4 l64 17 81 -78 c45 -44 95 -87 113
-96 37 -18 95 -21 125 -5 18 10 47 -16 292 -259 263 -262 273 -271 330 -287
73 -21 130 -15 197 22 81 44 129 127 129 222 -1 89 -23 118 -306 402 -241 241
-265 268 -255 287 14 26 14 82 1 118 -6 15 -49 67 -97 115 l-86 88 16 63 c9
35 19 91 23 126 l7 62 395 0 c354 0 397 -2 414 -17 17 -15 18 -62 18 -1080 l0
-1063 -720 0 c-464 0 -720 3 -720 10 0 23 -133 149 -188 178 -154 82 -330 82
-484 0 -55 -29 -188 -155 -188 -178 0 -6 -71 -10 -185 -10 l-185 0 0 1060 c0
1047 0 1060 20 1080 15 15 33 20 75 20 53 0 54 0 59 -32z m1631 -428 l49 -50
-149 -150 -150 -149 -52 51 -52 52 52 34 c66 45 173 153 212 214 17 27 32 48
35 48 3 0 28 -22 55 -50z m1892 -86 c139 -29 251 -103 325 -218 60 -94 80
-170 79 -306 0 -78 4 -130 15 -161 32 -99 131 -173 247 -187 127 -16 151 -50
156 -224 l3 -128 -66 0 c-106 0 -163 -17 -212 -62 -56 -52 -74 -109 -74 -235
l0 -93 -62 0 -63 1 -35 50 c-135 192 -422 256 -634 141 -60 -33 -147 -110
-176 -158 l-22 -34 -164 0 -164 0 0 815 0 815 385 0 c313 0 400 -3 462 -16z
m-1560 -416 c163 -164 254 -263 258 -281 16 -61 -45 -126 -104 -112 -16 4
-123 103 -283 263 l-258 257 62 62 c34 35 65 63 68 63 3 0 119 -114 257 -252z
m2381 -1085 l3 -113 -96 0 -95 0 0 93 c0 127 9 137 120 134 l65 -2 3 -112z
m-3574 -50 c68 -23 141 -88 179 -158 32 -59 31 -210 -1 -276 -37 -75 -87 -125
-158 -160 -56 -28 -77 -33 -142 -33 -64 0 -88 5 -137 27 -73 34 -128 85 -163
152 -22 43 -26 63 -26 135 0 101 20 154 85 225 94 101 231 135 363 88z m2789
11 c61 -21 141 -93 174 -158 21 -40 27 -70 31 -137 4 -78 2 -92 -23 -146 -70
-158 -254 -236 -422 -179 -66 22 -145 92 -181 160 -24 45 -27 62 -27 146 0 84
3 101 28 147 44 84 118 147 207 174 45 13 165 10 213 -7z m-3403 -309 l0 -75
-139 0 c-161 0 -163 1 -169 91 l-4 59 156 0 156 0 0 -75z m2360 0 l0 -75 -690
0 -690 0 0 75 0 75 690 0 690 0 0 -75z m430 0 l0 -75 -135 0 -135 0 0 75 0 75
135 0 135 0 0 -75z m1398 16 c-7 -93 -1 -91 -223 -91 l-193 0 0 75 0 75 210 0
210 0 -4 -59z"/>
<path d="M1418 3773 l-148 -148 -93 93 c-76 75 -98 92 -122 92 -45 -1 -85 -41
-85 -85 0 -17 135 -164 223 -242 81 -73 82 -73 295 140 162 162 182 186 182
215 0 42 -38 82 -77 82 -23 0 -56 -28 -175 -147z"/>
<path d="M3374 2950 c-51 -21 -54 -36 -54 -303 0 -259 5 -295 45 -311 9 -3
181 -6 381 -6 349 0 365 1 384 20 29 29 32 55 28 227 -4 139 -7 164 -27 205
-31 64 -84 116 -150 147 -55 26 -58 26 -321 28 -146 1 -275 -2 -286 -7z m563
-176 c49 -36 63 -78 63 -186 l0 -98 -260 0 -260 0 0 148 c0 82 3 152 7 156 4
4 101 6 215 4 190 -3 209 -5 235 -24z"/>
<path d="M3370 2187 c-39 -20 -56 -58 -41 -94 18 -43 48 -53 167 -53 98 0 107
2 129 25 40 39 32 96 -16 120 -36 19 -203 20 -239 2z"/>
<path d="M1052 1470 c-48 -11 -108 -55 -139 -101 -21 -31 -28 -57 -31 -106 -6
-84 16 -141 73 -191 74 -65 163 -79 250 -38 122 56 169 189 111 312 -28 59
-75 100 -142 120 -51 15 -72 16 -122 4z m100 -170 c33 -25 39 -49 22 -88 -34
-83 -165 -29 -136 56 9 27 43 52 73 52 9 0 28 -9 41 -20z"/>
<path d="M3789 1442 c-86 -45 -136 -146 -119 -241 20 -108 101 -179 215 -189
247 -19 348 304 132 428 -72 41 -152 42 -228 2z m145 -133 c33 -15 50 -57 37
-92 -29 -74 -141 -58 -141 21 0 42 6 54 35 70 26 15 38 15 69 1z"/>
</g>
</svg>
