<?xml version="1.0" standalone="no"?>
<!DOCTYPE svg PUBLIC "-//W3C//DTD SVG 20010904//EN"
 "http://www.w3.org/TR/2001/REC-SVG-20010904/DTD/svg10.dtd">
<svg version="1.0" xmlns="http://www.w3.org/2000/svg"
 width="512.000000pt" height="512.000000pt" viewBox="0 0 512.000000 512.000000"
 preserveAspectRatio="xMidYMid meet">

<g transform="translate(0.000000,512.000000) scale(0.100000,-0.100000)"
fill="#000000" stroke="none">
<path d="M905 5055 l-25 -24 0 -1886 0 -1885 -283 0 c-283 0 -284 0 -305 -23
-22 -23 -22 -23 -22 -535 l0 -512 -94 0 c-90 0 -96 -1 -115 -26 -28 -35 -26
-69 4 -99 l24 -25 2471 0 2471 0 24 25 c30 30 32 64 4 99 l-20 26 -400 0 -399
0 0 2420 0 2421 -25 24 -24 25 -1631 0 -1631 0 -24 -25z m3185 -2495 l0 -2371
-77 3 -78 3 -3 2271 -2 2271 -21 19 c-21 18 -58 19 -1349 19 -1291 0 -1328 -1
-1349 -19 l-21 -19 -2 -1201 -3 -1201 -77 -3 -78 -3 0 1301 0 1300 1530 0
1530 0 0 -2370z m-310 -155 l0 -2215 -455 0 -455 0 0 495 c0 410 -2 502 -14
530 -8 19 -16 36 -18 37 -2 1 -133 5 -293 8 l-290 5 -3 509 c-2 507 -2 510
-24 533 l-21 23 -434 0 -433 0 0 1145 0 1145 1220 0 1220 0 0 -2215z m-2440
-392 c0 -157 1 -168 22 -190 29 -31 66 -29 140 8 l62 31 63 -31 c73 -36 111
-39 144 -12 23 19 24 24 27 190 l3 171 150 0 149 0 0 -460 0 -460 -535 0 -535
0 0 460 0 460 155 0 155 0 0 -167z m300 78 l0 -90 -32 14 c-28 11 -39 11 -73
-1 -22 -7 -41 -14 -42 -14 -2 0 -3 41 -3 90 l0 90 75 0 75 0 0 -89z m-910
-1151 c0 -161 1 -170 22 -190 30 -28 67 -25 141 11 l63 31 62 -31 c91 -46 140
-40 161 20 6 18 11 98 11 180 l0 149 150 0 150 0 0 -460 0 -460 -535 0 -535 0
0 460 0 460 155 0 155 0 0 -170z m300 81 l0 -90 -35 15 c-31 13 -39 12 -71 -1
-20 -8 -38 -15 -40 -15 -2 0 -4 41 -4 90 l0 90 75 0 75 0 0 -89z m920 -78 c0
-157 1 -168 22 -190 29 -31 65 -29 143 9 l65 32 65 -32 c75 -37 103 -40 136
-13 23 19 24 24 27 190 l3 171 150 0 149 0 0 -460 0 -460 -535 0 -535 0 0 460
0 460 155 0 155 0 0 -167z m300 78 l0 -90 -35 15 c-31 13 -39 12 -71 -1 -20
-8 -38 -15 -40 -15 -2 0 -4 41 -4 90 l0 90 75 0 75 0 0 -89z"/>
<path d="M3275 2631 c-134 -33 -208 -170 -164 -302 43 -129 195 -186 320 -121
156 81 156 322 1 401 -44 22 -116 32 -157 22z m104 -177 c12 -15 21 -38 21
-51 0 -32 -42 -73 -75 -73 -36 0 -75 42 -75 80 0 67 88 97 129 44z"/>
<path d="M1216 1549 c-34 -27 -37 -86 -5 -115 23 -21 139 -32 204 -20 58 11
88 59 69 111 -12 31 -59 45 -152 45 -75 0 -93 -3 -116 -21z"/>
<path d="M606 479 c-33 -26 -37 -86 -6 -114 25 -23 156 -32 216 -16 50 13 72
52 57 98 -14 41 -46 53 -149 53 -77 0 -95 -3 -118 -21z"/>
<path d="M1825 475 c-43 -42 -29 -105 26 -124 41 -14 157 -14 198 0 55 19 69
82 26 124 -22 23 -31 25 -125 25 -94 0 -103 -2 -125 -25z"/>
</g>
</svg>
