<?xml version="1.0" standalone="no"?>
<!DOCTYPE svg PUBLIC "-//W3C//DTD SVG 20010904//EN"
 "http://www.w3.org/TR/2001/REC-SVG-20010904/DTD/svg10.dtd">
<svg version="1.0" xmlns="http://www.w3.org/2000/svg"
 width="512.000000pt" height="512.000000pt" viewBox="0 0 512.000000 512.000000"
 preserveAspectRatio="xMidYMid meet">

<g transform="translate(0.000000,512.000000) scale(0.100000,-0.100000)"
fill="#000000" stroke="none">
<path d="M1268 4896 c-26 -7 -55 -19 -65 -26 -53 -41 -88 -80 -109 -125 -20
-43 -24 -65 -24 -157 l0 -107 -267 -3 c-249 -3 -272 -5 -323 -26 -113 -45
-200 -134 -243 -249 l-22 -58 -3 -1764 c-1 -1170 1 -1783 8 -1820 32 -176 171
-313 346 -341 85 -14 3266 -13 3391 1 238 26 438 120 617 290 331 313 425 806
231 1216 -59 124 -105 193 -198 290 -127 133 -312 245 -482 291 l-70 19 -5
924 -5 924 -32 65 c-35 72 -103 148 -167 185 -80 47 -140 55 -403 55 l-243 0
0 93 c0 54 -6 115 -15 144 -20 66 -80 134 -147 164 l-53 24 -835 2 c-651 1
-845 -1 -882 -11z m1706 -228 c13 -18 16 -54 16 -188 0 -134 -3 -170 -16 -188
l-15 -22 -821 0 c-750 0 -823 1 -840 17 -16 14 -18 34 -18 191 0 149 2 178 17
194 15 17 54 18 839 18 l823 0 15 -22z m-1883 -448 c25 -59 101 -132 157 -152
29 -10 210 -13 887 -13 l850 0 52 24 c63 28 112 80 139 145 l19 47 250 -3
c272 -3 280 -5 337 -65 61 -63 58 -20 58 -977 l0 -874 -67 -7 c-290 -28 -518
-136 -708 -336 -359 -379 -388 -962 -70 -1379 23 -30 77 -88 119 -127 l76 -73
-1305 0 c-1088 0 -1311 2 -1338 14 -39 17 -92 71 -106 109 -8 20 -11 574 -11
1796 l0 1768 23 43 c51 97 93 109 384 110 l232 0 22 -50z m2918 -2105 c170
-36 307 -110 432 -234 167 -168 249 -367 249 -604 -1 -234 -83 -431 -249 -598
-167 -166 -364 -248 -598 -249 -291 0 -550 137 -710 377 -97 146 -143 298
-143 473 0 402 279 748 673 834 85 19 260 19 346 1z"/>
<path d="M1350 3619 c-14 -5 -107 -92 -207 -192 l-182 -181 -84 82 c-74 72
-89 82 -120 82 -50 0 -82 -17 -102 -55 -33 -61 -19 -87 128 -233 131 -129 135
-132 178 -132 l44 0 242 243 c236 236 243 244 243 283 0 48 -22 82 -66 100
-38 16 -40 16 -74 3z"/>
<path d="M1774 3616 c-17 -8 -39 -24 -48 -37 -21 -30 -21 -88 0 -118 37 -52
18 -51 945 -51 955 0 911 -3 943 65 9 18 16 38 16 45 0 7 -7 27 -16 45 -32 68
12 65 -946 65 -704 -1 -869 -3 -894 -14z"/>
<path d="M1758 3183 c-56 -35 -66 -117 -19 -164 l29 -29 895 0 c881 0 895 0
920 20 38 30 52 80 33 123 -29 71 23 67 -953 67 -800 -1 -880 -2 -905 -17z"/>
<path d="M1350 2553 c-8 -3 -99 -89 -202 -191 l-188 -187 -77 77 c-43 42 -91
82 -107 88 -41 15 -93 -4 -117 -44 -23 -37 -24 -67 -5 -104 23 -43 248 -260
279 -267 56 -14 78 2 320 243 224 224 237 240 237 274 0 86 -65 138 -140 111z"/>
<path d="M1758 2543 c-56 -35 -66 -117 -19 -164 l29 -29 472 0 472 0 29 29
c48 49 34 142 -26 169 -19 9 -148 12 -478 12 -403 -1 -455 -2 -479 -17z"/>
<path d="M1739 2101 c-47 -48 -37 -130 21 -164 25 -15 76 -17 480 -17 404 0
455 2 480 17 58 34 68 116 21 164 l-29 29 -472 0 -472 0 -29 -29z"/>
<path d="M1335 1479 c-11 -6 -100 -91 -197 -187 l-177 -176 -78 76 c-84 81
-107 93 -157 84 -71 -13 -106 -96 -68 -158 30 -49 233 -245 267 -258 59 -23
79 -9 313 224 123 121 230 233 238 248 39 74 -6 158 -83 158 -21 0 -47 -6 -58
-11z"/>
<path d="M1739 1461 c-49 -49 -36 -133 25 -166 27 -14 71 -16 383 -13 l351 3
26 24 c51 48 40 142 -20 170 -17 7 -140 11 -380 11 l-356 0 -29 -29z"/>
<path d="M1774 1056 c-41 -18 -64 -52 -64 -96 0 -45 23 -78 66 -96 49 -21 669
-20 719 0 35 15 65 59 65 96 0 37 -30 81 -65 96 -49 20 -675 20 -721 0z"/>
<path d="M3781 1794 c-45 -32 -51 -67 -51 -303 0 -130 4 -231 11 -247 12 -33
209 -236 257 -266 82 -51 186 31 157 123 -4 13 -52 69 -106 124 l-99 102 0
192 c0 206 -7 244 -51 275 -13 9 -39 16 -59 16 -20 0 -46 -7 -59 -16z"/>
</g>
</svg>
