<?xml version="1.0" standalone="no"?>
<!DOCTYPE svg PUBLIC "-//W3C//DTD SVG 20010904//EN"
 "http://www.w3.org/TR/2001/REC-SVG-20010904/DTD/svg10.dtd">
<svg version="1.0" xmlns="http://www.w3.org/2000/svg"
 width="512.000000pt" height="512.000000pt" viewBox="0 0 512.000000 512.000000"
 preserveAspectRatio="xMidYMid meet">

<g transform="translate(0.000000,512.000000) scale(0.100000,-0.100000)"
fill="#000000" stroke="none">
<path d="M2493 5106 c-134 -42 -246 -185 -305 -391 -20 -71 -23 -101 -22 -265
0 -173 2 -191 28 -275 35 -116 78 -196 143 -265 64 -69 136 -110 208 -117 30
-3 55 -7 55 -8 0 -2 -31 -58 -68 -126 l-69 -124 -631 -5 -632 -5 -470 -470
-470 -470 0 -1272 c0 -1260 0 -1273 20 -1293 20 -20 33 -20 1828 -20 l1807 0
473 473 472 472 0 1271 0 1271 -23 21 -23 22 -767 0 c-422 0 -767 2 -767 3 0
2 31 60 69 128 l68 124 194 5 c187 5 196 6 246 32 111 59 216 211 257 374 77
304 9 642 -163 815 -115 115 -73 109 -799 108 -478 0 -626 -3 -659 -13z m933
-178 c-83 -132 -119 -272 -120 -468 -1 -202 39 -360 122 -484 l31 -46 -456 0
c-444 0 -458 1 -500 21 -71 35 -141 142 -178 274 -26 92 -31 303 -11 406 30
152 118 298 201 335 24 10 129 13 487 14 l458 0 -34 -52z m393 19 c124 -82
208 -352 181 -585 -34 -304 -193 -492 -349 -412 -78 39 -140 137 -183 286 -31
109 -31 323 0 435 68 251 215 366 351 276z m-571 -1170 c-2 -8 -81 -156 -177
-330 l-174 -317 -250 0 -249 0 14 23 c8 12 90 160 183 330 l168 307 244 0
c199 0 244 -2 241 -13z m-868 -391 c0 -2 -34 -66 -76 -142 l-76 -139 -236
-237 -237 -238 -630 0 -630 0 380 380 380 380 562 0 c310 0 563 -2 563 -4z
m1865 -376 l-380 -380 -630 0 -630 0 197 198 197 197 77 140 c42 77 87 159
101 183 l24 42 712 0 712 0 -380 -380z m95 -2395 l-380 -380 0 1145 0 1145
378 378 377 377 3 -1142 2 -1143 -380 -380z m-1580 2368 c0 -4 -78 -85 -172
-180 l-173 -173 -230 0 -230 0 180 180 180 180 222 0 c123 0 223 -3 223 -7z
m-1050 -963 c0 -457 1 -471 20 -490 12 -12 33 -20 52 -20 35 0 34 0 213 198
60 67 112 121 116 120 4 -2 71 -74 149 -160 129 -144 145 -158 175 -158 24 0
39 7 54 26 21 26 21 36 21 490 l0 464 655 0 655 0 0 -1175 0 -1175 -1710 0
-1710 0 0 1175 0 1175 655 0 655 0 0 -470z m660 103 l0 -368 -72 80 c-127 140
-164 175 -188 175 -24 0 -76 -48 -198 -184 l-62 -69 0 367 0 366 260 0 260 0
0 -367z"/>
<path d="M3648 4876 c-85 -59 -134 -241 -125 -466 10 -258 82 -400 202 -400
61 0 96 28 140 112 44 83 58 168 59 333 0 208 -35 335 -113 409 -44 42 -112
47 -163 12z m106 -183 c29 -85 41 -224 28 -333 -12 -102 -38 -190 -59 -197 -7
-3 -20 23 -33 64 -28 86 -38 270 -21 369 14 78 46 158 60 150 5 -3 16 -27 25
-53z"/>
<path d="M2877 912 c-15 -16 -17 -51 -17 -290 0 -269 0 -271 22 -286 19 -14
70 -16 356 -16 l333 0 24 25 25 24 0 254 c0 242 -1 256 -21 281 l-20 26 -343
0 c-320 0 -344 -1 -359 -18z m603 -287 l0 -165 -240 0 -240 0 0 165 0 165 240
0 240 0 0 -165z"/>
<path d="M620 820 c-25 -25 -26 -61 -1 -91 l19 -24 340 0 c320 0 341 1 361 19
26 24 28 77 3 99 -17 15 -56 17 -360 17 -329 0 -343 -1 -362 -20z"/>
<path d="M625 525 c-31 -30 -32 -65 -2 -93 23 -22 28 -22 360 -22 324 0 338 1
357 20 29 29 26 74 -6 99 -26 20 -38 21 -356 21 l-329 0 -24 -25z"/>
</g>
</svg>
