<?xml version="1.0" standalone="no"?>
<!DOCTYPE svg PUBLIC "-//W3C//DTD SVG 20010904//EN"
 "http://www.w3.org/TR/2001/REC-SVG-20010904/DTD/svg10.dtd">
<svg version="1.0" xmlns="http://www.w3.org/2000/svg"
 width="512.000000pt" height="512.000000pt" viewBox="0 0 512.000000 512.000000"
 preserveAspectRatio="xMidYMid meet">

<g transform="translate(0.000000,512.000000) scale(0.100000,-0.100000)"
fill="#000000" stroke="none">
<path d="M1225 5109 c-667 -90 -1164 -655 -1165 -1324 0 -370 142 -702 416
-970 l94 -92 0 -1361 0 -1362 2245 0 2245 0 0 2135 0 2135 -1209 0 -1208 0
-56 113 c-183 366 -535 633 -939 712 -100 20 -326 27 -423 14z m395 -184 c505
-106 869 -501 931 -1010 20 -161 -6 -383 -64 -536 -147 -390 -498 -678 -907
-745 -126 -21 -342 -14 -457 15 -458 114 -802 488 -878 951 -86 534 212 1060
715 1263 208 83 453 106 660 62z m1735 -1255 l0 -425 -242 -3 -243 -2 0 -85 0
-85 245 0 245 0 0 -140 0 -140 -537 0 -536 0 36 33 c53 48 132 142 182 219
134 203 210 434 222 673 5 97 1 153 -23 338 l-7 47 329 -2 329 -3 0 -425z
m1535 255 l0 -175 -470 0 -471 0 3 -82 3 -83 468 -3 467 -2 0 -1705 0 -1705
-2075 0 -2075 0 0 1220 c0 671 2 1220 4 1220 2 0 41 -18 88 -39 198 -92 372
-126 603 -118 215 7 359 41 542 128 l82 39 735 0 736 0 0 740 0 740 680 0 680
0 0 -175z"/>
<path d="M1617 4633 l-57 -58 97 -97 98 -98 -538 0 -537 0 0 -185 0 -185 85 0
85 0 0 100 0 100 452 0 453 0 -98 -98 -97 -97 60 -60 60 -60 200 200 200 200
-197 197 c-109 109 -200 198 -203 198 -3 0 -31 -26 -63 -57z"/>
<path d="M845 3640 l-200 -200 200 -200 200 -200 62 62 63 63 -97 97 -98 98
538 0 537 0 0 185 0 185 -85 0 -85 0 0 -100 0 -100 -452 0 -453 0 98 98 97 97
-58 58 c-32 31 -60 57 -62 57 -3 0 -95 -90 -205 -200z"/>
<path d="M1080 1050 l0 -540 540 0 540 0 0 540 0 540 -540 0 -540 0 0 -540z
m910 65 c0 -168 -1 -305 -3 -305 -1 0 -139 137 -307 305 l-305 305 308 0 307
0 0 -305z m-130 -427 c0 -5 -137 -8 -305 -8 l-305 0 0 312 0 313 305 -305
c168 -168 305 -308 305 -312z"/>
<path d="M2477 1473 c-4 -3 -7 -42 -7 -85 l0 -78 800 0 800 0 0 85 0 85 -793
0 c-437 0 -797 -3 -800 -7z"/>
<path d="M2477 1133 c-4 -3 -7 -42 -7 -85 l0 -78 145 0 145 0 0 85 0 85 -138
0 c-76 0 -142 -3 -145 -7z"/>
<path d="M2930 1055 l0 -85 140 0 140 0 0 85 0 85 -140 0 -140 0 0 -85z"/>
<path d="M3387 1133 c-4 -3 -7 -42 -7 -85 l0 -78 345 0 345 0 0 85 0 85 -338
0 c-186 0 -342 -3 -345 -7z"/>
<path d="M2477 793 c-4 -3 -7 -42 -7 -85 l0 -78 515 0 515 0 0 85 0 85 -508 0
c-280 0 -512 -3 -515 -7z"/>
</g>
</svg>
