<?xml version="1.0" standalone="no"?>
<!DOCTYPE svg PUBLIC "-//W3C//DTD SVG 20010904//EN"
 "http://www.w3.org/TR/2001/REC-SVG-20010904/DTD/svg10.dtd">
<svg version="1.0" xmlns="http://www.w3.org/2000/svg"
 width="512.000000pt" height="512.000000pt" viewBox="0 0 512.000000 512.000000"
 preserveAspectRatio="xMidYMid meet">

<g transform="translate(0.000000,512.000000) scale(0.100000,-0.100000)"
fill="#000000" stroke="none">
<path d="M1515 5066 c-253 -50 -449 -194 -554 -408 -60 -123 -76 -191 -76
-338 0 -149 16 -216 80 -347 101 -206 309 -362 538 -404 l67 -12 0 -703 0
-703 -43 -29 c-73 -51 -119 -105 -277 -324 -84 -117 -162 -223 -173 -235 -19
-22 -28 -23 -148 -23 l-127 0 -22 45 c-26 54 -86 108 -139 123 -25 8 -129 12
-295 12 l-257 0 -24 -25 -25 -24 0 -791 0 -791 25 -25 25 -25 273 3 272 3 47
28 c60 35 95 81 111 146 l12 51 97 0 c190 0 430 45 577 109 36 16 118 53 181
81 63 29 167 66 230 83 l115 30 390 7 c215 5 428 13 475 19 199 27 371 71 474
123 236 119 726 504 1466 1151 163 143 195 179 233 257 28 57 32 75 32 150 0
69 -5 93 -23 127 -59 112 -147 166 -271 167 -42 1 -95 -3 -118 -7 l-43 -9 0
972 c0 700 -3 983 -11 1011 -17 55 -65 108 -123 135 l-51 24 -1066 0 -1066 0
-36 55 c-71 106 -184 202 -301 255 -133 61 -313 83 -451 56z m290 -161 c161
-42 310 -162 378 -305 89 -187 87 -383 -4 -569 -150 -303 -555 -414 -853 -233
-123 74 -224 206 -268 347 -46 146 -24 336 54 473 85 149 256 272 421 302 67
12 195 5 272 -15z m1057 -830 c3 -466 3 -475 24 -495 40 -40 70 -30 256 84 96
58 178 106 181 106 4 0 77 -43 164 -97 87 -53 171 -102 187 -108 35 -15 81 -3
96 25 6 12 10 201 10 489 l0 471 310 0 c327 0 349 -3 369 -47 8 -17 11 -308
11 -1011 l-1 -987 -136 -65 c-76 -36 -315 -164 -533 -284 -217 -121 -402 -221
-410 -223 -9 -2 -27 15 -45 44 -38 61 -102 109 -168 127 -51 14 -718 62 -1224
88 l-233 12 0 676 0 677 67 12 c308 57 553 312 609 631 18 104 13 216 -12 298
-7 26 -14 48 -14 50 0 1 110 2 245 2 l244 0 3 -475z m768 85 c0 -214 -2 -390
-5 -390 -3 0 -49 27 -102 60 -107 68 -186 110 -205 110 -8 0 -63 -30 -123 -66
-61 -37 -125 -76 -142 -86 l-33 -20 0 391 0 391 305 0 305 0 0 -390z m1230
-1755 c65 -34 84 -144 39 -226 -17 -30 -91 -103 -239 -232 -616 -540 -1104
-929 -1331 -1059 -203 -116 -497 -161 -1024 -157 -350 3 -485 -25 -778 -163
-100 -47 -186 -79 -260 -98 -123 -31 -309 -53 -402 -48 l-60 3 -3 483 -2 482
161 0 c88 0 168 4 178 10 10 5 99 121 197 257 98 136 194 265 212 285 46 51
142 97 217 103 33 3 356 -14 718 -38 727 -48 683 -41 735 -117 29 -43 30 -116
1 -171 -35 -70 -51 -73 -495 -102 -232 -15 -400 -29 -413 -36 -48 -26 -46 -94
2 -126 23 -15 56 -14 418 10 217 14 408 28 424 31 95 19 195 111 222 204 l17
56 95 50 c52 27 131 70 176 95 44 25 184 104 310 176 337 191 526 284 660 324
76 22 186 24 225 4z m-4257 -846 c14 -6 30 -22 36 -36 8 -17 11 -212 11 -648
l0 -624 -24 -28 -24 -28 -204 0 -203 0 -3 688 -2 687 194 0 c122 0 204 -4 219
-11z"/>
<path d="M1915 4598 c-11 -6 -91 -77 -178 -157 -87 -80 -163 -148 -168 -149
-5 -2 -43 28 -85 67 -63 59 -82 71 -109 71 -24 0 -39 -7 -54 -26 -40 -50 -30
-70 81 -177 117 -111 148 -132 183 -120 13 4 91 69 172 144 279 257 263 241
263 281 0 28 -7 42 -26 57 -30 24 -50 26 -79 9z"/>
<path d="M2057 3158 c-33 -26 -37 -67 -37 -367 0 -307 5 -352 40 -371 11 -6
153 -10 350 -10 l331 0 24 25 25 24 0 331 0 331 -25 24 -24 25 -334 0 c-251 0
-337 -3 -350 -12z m583 -368 l0 -230 -230 0 -230 0 0 230 0 230 230 0 230 0 0
-230z"/>
<path d="M376 478 c-54 -49 -25 -128 47 -128 57 0 90 57 63 108 -14 27 -40 41
-73 42 -7 0 -23 -10 -37 -22z"/>
</g>
</svg>
